<svg width="128" height="128" viewBox="0 0 128 128" fill="none" xmlns="http://www.w3.org/2000/svg">
<path d="M37.4939 33.4972C37.4939 24 39.689 16.7374 44.0793 11.7095C48.5793 6.56983 55.2744 4 64.1646 4C73.0549 4 79.6951 6.56983 84.0854 11.7095C88.5854 16.7374 90.8354 24 90.8354 33.4972V37.1843H73.7134V32.324C73.7134 28.0782 72.8902 25.1173 71.2439 23.4413C69.7073 21.6536 67.5122 20.7598 64.6585 20.7598C61.8049 20.7598 59.5549 21.6536 57.9085 23.4413C56.372 25.1173 55.6037 28.0782 55.6037 32.324C55.6037 36.3464 56.4817 39.9218 58.2378 43.0503C59.9939 46.067 62.189 48.9721 64.8232 51.7654C67.4573 54.4469 70.2561 57.1843 73.2195 59.9776C76.2927 62.6592 79.1463 65.6201 81.7805 68.8603C84.4146 72.1005 86.6098 75.7877 88.3659 79.9218C90.1219 84.0559 91 88.9162 91 94.5028C91 104 88.6951 111.318 84.0854 116.458C79.5854 121.486 72.8902 124 64 124C55.1098 124 48.3598 121.486 43.75 116.458C39.25 111.318 37 104 37 94.5028V87.2961H54.122V95.676C54.122 99.9218 54.9451 102.883 56.5915 104.559C58.3476 106.235 60.6524 107.073 63.5061 107.073C66.3598 107.073 68.6098 106.235 70.2561 104.559C72.0122 102.883 72.8902 99.9218 72.8902 95.676C72.8902 91.6536 72.0122 88.1341 70.2561 85.1173C68.5 81.9888 66.3049 79.0838 63.6707 76.4022C61.0366 73.6089 58.1829 70.8715 55.1098 68.1899C52.1463 65.3966 49.3476 62.3799 46.7134 59.1397C44.0793 55.8994 41.8841 52.2123 40.128 48.0782C38.372 43.9441 37.4939 39.0838 37.4939 33.4972Z" fill="#E50914"/>
</svg>
