<svg width="980" height="152" viewBox="0 0 980 152" fill="none" xmlns="http://www.w3.org/2000/svg">
<path fill-rule="evenodd" clip-rule="evenodd" d="M0.643141 36.3316C0.643141 79.7316 47.0141 85.1916 47.0161 115.182C47.0161 125.646 42.2701 129.574 34.7211 129.835C27.1721 130.096 22.4241 126.438 22.4241 115.793V105.158C14.9468 105.298 7.47014 105.441 -0.00585938 105.589V114.868C-0.00585938 139.112 12.0711 152.292 35.3661 151.123C58.6611 149.954 70.7441 136.254 70.7441 113.178C70.7441 72.1026 24.3661 66.2226 24.3671 35.4396C24.3671 24.8086 28.6811 20.9256 36.2301 21.1876C43.7791 21.4496 48.0941 25.5686 48.0941 36.0276V42.0986C55.5721 42.2506 63.0501 42.3993 70.5281 42.5446V38.0006C70.5281 14.9206 58.6631 1.21361 35.5831 0.0706145C12.5031 -1.07239 0.643141 12.0986 0.643141 36.3316ZM133.959 93.3416V113.286C133.959 123.251 129.212 126.967 121.659 127.179C114.106 127.391 109.359 123.891 109.359 113.779V37.4026C109.359 27.2916 114.105 23.5906 121.659 23.8026C129.213 24.0146 133.959 27.9316 133.959 37.8966V52.8546C141.439 52.9413 148.919 53.026 156.399 53.1086V39.6986C156.399 17.6536 144.315 4.64062 121.013 3.70562C97.7131 2.75462 85.6311 15.3336 85.6311 38.3266V112.854C85.6311 135.848 97.7121 148.426 121.013 147.476C144.314 146.526 156.4 133.528 156.399 111.483V93.1426C148.919 93.2066 141.439 93.2729 133.959 93.3416ZM247.9 141.955C245.526 137.082 245.31 132.338 245.31 125.886V105.386C245.31 91.5346 241.426 81.5056 229.556 77.1156C240.131 72.7156 245.095 63.8156 245.095 50.1546V39.7186C245.095 19.2406 234.519 8.94763 209.917 8.22763C197.975 7.88829 186.034 7.52896 174.094 7.14962V144.034C182.007 143.78 189.92 143.537 197.832 143.305V88.1666L206.032 88.1226C216.822 88.0716 221.57 92.6466 221.57 105.09V126.16C221.57 137.079 222.434 139.16 223.729 142.575C231.786 142.358 239.843 142.151 247.9 141.955ZM209.269 27.4616C217.686 27.6356 221.355 31.9196 221.355 41.4936V54.7116C221.355 65.4316 215.955 68.8676 207.111 68.8476L197.832 68.8206V27.2206C201.644 27.3046 205.456 27.385 209.269 27.4616ZM287.831 28.8296C301.498 29.0296 315.168 29.2086 328.842 29.3666V10.8756C307.257 10.525 285.672 10.1036 264.089 9.61163V141.572C285.673 141.08 307.257 140.658 328.842 140.308V121.819C315.171 121.977 301.5 122.155 287.831 122.355V84.0086C298.698 83.9806 309.562 83.9546 320.424 83.9306V65.3996C309.557 65.371 298.693 65.3376 287.831 65.2996V28.8296ZM370.505 29.7876C384.176 29.9043 397.848 30.0016 411.52 30.0796V11.8796C389.933 11.7083 368.347 11.467 346.761 11.1556V140.033C368.346 139.721 389.932 139.479 411.52 139.309V121.104C397.848 121.182 384.176 121.279 370.505 121.396V83.8366C381.372 83.8193 392.238 83.8046 403.105 83.7926V65.5676C392.238 65.553 381.372 65.5353 370.505 65.5146V29.7876ZM480.17 139.005C488.303 138.997 496.435 138.999 504.564 139.012V12.1716C497.512 12.183 490.46 12.186 483.408 12.1806V88.0926C475.275 62.79 467.143 37.471 459.014 12.1356C449.087 12.105 439.157 12.0593 429.224 11.9986V139.185C436.347 139.141 443.47 139.106 450.595 139.078V47.1186C460.453 77.7853 470.311 108.414 480.17 139.005ZM521.835 42.5916C521.835 78.8346 568.247 83.7486 568.247 110.001C568.247 119.101 563.498 122.354 555.942 122.315C548.386 122.276 543.642 118.991 543.642 109.915V100.836C536.158 100.82 528.674 100.807 521.191 100.797V108.597C521.191 128.904 533.28 140.524 556.591 140.688C579.905 140.867 591.991 129.325 591.991 108.846C591.991 72.2576 545.58 67.4056 545.58 41.2716C545.58 32.1916 549.897 28.7236 557.452 28.6856C565.007 28.6476 569.325 32.0776 569.325 41.1856V46.4666C576.809 46.4386 584.293 46.4053 591.776 46.3666V42.3486C591.776 21.8696 579.903 10.3256 556.805 10.5036C533.708 10.6626 521.835 22.2836 521.835 42.5916ZM661.501 10.6916C649.917 10.8916 638.333 11.0726 626.748 11.2346C618.69 54.2513 610.631 97.055 602.572 139.646C609.839 139.729 617.105 139.82 624.372 139.919C625.739 132.157 627.106 124.39 628.472 116.619C638.186 116.705 647.899 116.801 657.612 116.906C658.979 124.762 660.345 132.629 661.712 140.506C669.699 140.644 677.686 140.793 685.671 140.952C677.616 97.2189 669.559 53.7986 661.501 10.6906V10.6916ZM642.937 33.8826C646.751 55.6213 650.565 77.4213 654.378 99.2827C646.751 99.236 639.124 99.1926 631.497 99.1526C635.311 77.4526 639.124 55.6956 642.937 33.8816V33.8826ZM723.665 28.3246C736.687 28.1046 749.708 27.8663 762.729 27.6096V8.41864C741.796 8.99664 720.861 9.50797 699.924 9.95263V141.235C707.838 141.403 715.752 141.58 723.665 141.768V87.1246C733.881 87.168 744.097 87.2129 754.312 87.2596V68.1316C744.097 68.1616 733.881 68.1903 723.665 68.2176V28.3246ZM827.256 6.42462C815.676 6.81928 804.095 7.19428 792.514 7.54962C784.458 53.1583 776.402 98.284 768.345 142.927C775.612 143.131 782.878 143.344 790.145 143.565C791.511 135.385 792.878 127.191 794.245 118.981C803.955 119.172 813.665 119.372 823.376 119.581C824.742 127.961 826.109 136.357 827.476 144.771C835.459 145.043 843.443 145.326 851.426 145.618C843.369 98.6389 835.312 52.2393 827.256 6.41864V6.42462ZM808.699 31.3246C812.511 54.3573 816.323 77.5153 820.135 100.799C812.511 100.706 804.887 100.616 797.262 100.529C801.074 77.5833 804.886 54.5156 808.699 31.3256V31.3246ZM939.444 149.225C937.071 143.648 936.855 138.396 936.855 131.253V108.57C936.855 93.2286 932.973 82.0426 921.109 77.2556C931.679 72.4916 936.64 62.5806 936.64 47.4476V35.8966C936.64 13.1576 926.071 2.52662 901.478 3.60962C889.541 4.10762 877.603 4.58328 865.665 5.03662V146.146C873.576 146.446 881.486 146.757 889.397 147.077V88.8676L897.597 88.9296C908.381 89.0016 913.124 94.0086 913.124 107.48V130.257C913.124 142.057 913.987 144.37 915.281 148.157C923.337 148.504 931.391 148.861 939.444 149.228V149.225ZM900.831 24.1956C909.244 23.9376 912.911 28.3786 912.911 38.7386V53.0236C912.911 64.6286 907.519 68.3756 898.674 68.4046L889.397 68.4426V24.5306C893.208 24.4206 897.019 24.3089 900.831 24.1956ZM955.624 149.977C963.532 150.349 971.44 150.732 979.348 151.124V0.0596281C971.44 0.450961 963.532 0.833298 955.624 1.20663V149.977Z" fill="#E50914"/>
</svg>
